<svg id="svg" xmlns="http://www.w3.org/2000/svg" xmlns:xlink="http://www.w3.org/1999/xlink" width="400" height="532.5443786982249" viewBox="0, 0, 400,532.5443786982249"><g id="svgg"><path id="path0" d="M210.479 57.978 C 210.881 58.622,210.834 58.900,210.203 59.596 C 209.270 60.628,209.246 63.152,210.163 63.822 C 211.023 64.451,210.965 64.800,210.000 64.800 C 209.560 64.800,209.200 64.620,209.200 64.400 C 209.200 64.180,208.928 64.000,208.595 64.000 C 208.262 64.000,207.626 63.775,207.182 63.500 C 206.240 62.916,205.617 63.554,205.606 65.114 C 205.600 65.997,205.559 65.986,204.400 64.800 C 203.740 64.125,203.200 63.219,203.200 62.786 C 203.200 61.672,202.534 61.810,202.239 62.986 C 201.938 64.186,200.823 63.940,200.754 62.657 C 200.717 61.981,200.669 61.948,200.524 62.500 C 200.274 63.459,199.504 63.379,198.846 62.325 C 198.319 61.482,198.279 61.477,197.757 62.192 C 197.133 63.045,195.426 62.374,193.369 60.466 C 192.744 59.887,192.049 59.599,191.575 59.722 C 191.149 59.834,190.698 59.759,190.573 59.556 C 190.057 58.722,189.704 59.691,190.121 60.796 C 190.474 61.732,190.456 62.098,190.036 62.494 C 189.609 62.898,189.463 62.899,189.317 62.500 C 189.216 62.225,188.833 62.005,188.467 62.012 C 187.865 62.023,187.868 62.064,188.500 62.432 C 188.885 62.656,189.200 63.281,189.200 63.820 C 189.200 64.433,189.429 64.800,189.813 64.800 C 190.149 64.800,190.529 65.070,190.655 65.400 C 190.782 65.730,191.290 66.000,191.784 66.000 C 192.580 66.000,194.800 67.606,194.800 68.181 C 194.800 68.592,193.725 68.401,192.446 67.763 C 191.744 67.413,190.883 67.236,190.534 67.370 C 190.185 67.504,189.696 67.457,189.449 67.265 C 188.572 66.583,187.240 66.497,186.423 67.069 C 185.967 67.388,185.191 67.593,184.697 67.525 C 183.307 67.331,183.170 69.456,184.539 69.977 C 185.085 70.184,185.649 70.724,185.793 71.177 C 185.987 71.789,186.393 72.000,187.378 72.000 C 188.106 72.000,188.922 72.265,189.191 72.589 C 189.460 72.914,190.291 73.293,191.037 73.433 C 191.783 73.573,192.294 73.848,192.173 74.044 C 191.797 74.652,189.914 74.435,189.393 73.723 C 188.927 73.086,188.857 73.086,188.220 73.723 C 187.203 74.740,186.366 74.524,184.600 72.787 C 183.590 71.794,182.221 70.968,180.887 70.548 C 179.725 70.182,178.680 69.729,178.564 69.541 C 177.447 67.734,177.789 70.420,178.954 72.600 C 180.775 76.010,178.057 75.969,175.764 72.553 C 175.124 71.598,174.381 70.814,174.114 70.809 C 173.847 70.804,173.424 70.418,173.174 69.952 C 172.449 68.598,170.715 66.800,170.134 66.800 C 169.501 66.800,169.384 69.420,170.000 69.800 C 170.220 69.936,170.400 70.390,170.400 70.810 C 170.400 71.229,170.928 72.173,171.573 72.908 C 172.218 73.642,172.860 74.684,172.999 75.222 C 173.159 75.836,173.875 76.516,174.927 77.051 C 176.448 77.825,176.602 78.043,176.624 79.457 C 176.641 80.589,176.939 81.303,177.720 82.084 C 179.699 84.063,178.493 85.035,176.086 83.400 C 175.277 82.850,174.361 82.400,174.052 82.400 C 173.743 82.400,172.737 81.725,171.817 80.900 C 169.796 79.089,167.682 77.837,166.607 77.816 C 166.142 77.806,165.751 77.471,165.659 77.002 C 165.574 76.563,164.987 75.676,164.356 75.031 C 163.725 74.385,163.113 73.556,162.997 73.189 C 162.880 72.822,162.376 72.335,161.876 72.107 C 161.376 71.880,160.524 71.045,159.984 70.253 C 158.050 67.421,156.139 67.490,155.906 70.400 L 155.762 72.200 155.446 70.599 C 155.125 68.975,153.606 66.800,152.792 66.800 C 152.547 66.800,151.757 66.350,151.036 65.800 C 149.562 64.676,148.400 64.500,148.400 65.400 C 148.400 66.344,146.823 66.110,146.378 65.100 C 146.060 64.380,146.022 64.528,146.186 65.842 C 146.455 68.001,145.123 69.561,144.178 68.195 C 143.875 67.758,143.472 67.216,143.283 66.991 C 143.094 66.767,143.013 66.362,143.103 66.091 C 143.193 65.821,143.072 65.600,142.833 65.600 C 142.595 65.600,142.400 65.851,142.400 66.157 C 142.400 66.464,142.130 66.818,141.800 66.945 C 141.470 67.071,141.200 67.031,141.200 66.856 C 141.200 66.680,140.255 66.122,139.100 65.616 C 137.945 65.110,136.607 64.515,136.127 64.295 C 134.393 63.499,131.076 66.308,132.500 67.368 C 133.356 68.004,133.386 69.523,132.564 70.600 C 131.992 71.349,131.929 71.356,131.557 70.700 C 130.979 69.680,130.414 69.841,129.955 71.156 C 129.499 72.465,128.000 72.480,128.000 71.177 C 128.000 70.776,127.839 70.348,127.642 70.226 C 127.113 69.899,126.704 71.264,127.187 71.747 C 127.674 72.234,127.742 73.600,127.280 73.600 C 127.104 73.600,126.762 73.402,126.520 73.160 C 126.258 72.898,125.575 72.830,124.840 72.991 C 123.313 73.327,122.879 76.400,124.357 76.400 C 125.109 76.400,125.824 77.430,125.283 77.731 C 124.506 78.163,122.011 77.464,121.785 76.752 C 121.490 75.822,120.800 76.150,120.800 77.220 C 120.800 77.645,120.440 78.218,120.000 78.493 C 119.560 78.768,119.200 79.309,119.200 79.696 C 119.200 80.083,119.020 80.400,118.800 80.400 C 118.580 80.400,118.400 79.889,118.400 79.264 C 118.400 77.952,116.989 77.038,115.903 77.647 C 115.423 77.915,115.194 77.810,115.013 77.240 C 114.399 75.307,112.000 74.816,112.000 76.624 C 112.000 77.672,111.623 77.863,110.925 77.165 C 110.612 76.852,110.415 76.852,110.222 77.165 C 110.074 77.404,109.671 77.600,109.327 77.600 C 108.812 77.600,108.791 77.492,109.208 76.990 C 109.895 76.163,109.480 75.860,107.747 75.925 C 106.710 75.964,105.938 75.682,105.062 74.945 L 103.832 73.910 103.420 74.833 C 102.558 76.765,100.800 78.085,100.800 76.800 C 100.800 76.356,100.533 76.000,100.200 76.000 C 99.870 76.000,99.600 76.270,99.600 76.600 C 99.600 76.930,99.426 77.200,99.214 77.200 C 98.266 77.200,97.991 78.761,98.650 80.408 C 99.751 83.159,98.809 83.325,96.372 80.810 C 93.882 78.240,93.221 78.642,94.645 81.863 C 95.897 84.695,95.965 87.980,94.785 88.716 C 94.337 88.996,93.802 89.669,93.595 90.213 C 93.146 91.395,92.400 91.518,92.400 90.409 C 92.400 89.521,90.661 88.192,90.018 88.589 C 89.788 88.731,89.596 89.422,89.591 90.124 C 89.582 91.399,89.582 91.399,88.891 90.539 C 87.170 88.394,84.822 92.108,83.986 98.300 C 83.711 100.335,83.344 102.000,83.170 102.000 C 82.606 102.000,82.321 103.623,82.786 104.184 C 83.098 104.559,83.108 104.810,82.819 104.988 C 82.168 105.391,81.654 104.879,81.872 104.045 C 82.115 103.116,81.242 102.490,80.761 103.249 C 80.304 103.972,80.301 105.600,80.757 105.600 C 81.573 105.600,81.599 106.978,80.798 107.773 L 79.965 108.600 79.191 107.600 C 78.764 107.047,78.414 105.960,78.409 105.170 C 78.398 103.394,77.018 101.913,75.696 102.259 C 74.997 102.442,74.727 102.259,74.392 101.380 C 74.072 100.536,73.859 100.381,73.505 100.735 C 72.919 101.321,71.497 101.337,70.925 100.765 C 69.928 99.768,69.958 101.313,70.956 102.354 C 72.152 103.602,72.256 104.000,71.387 104.000 C 70.429 104.000,70.257 105.060,70.939 106.765 C 71.739 108.764,70.820 109.441,69.531 107.803 C 68.473 106.458,67.600 106.505,67.600 107.906 C 67.600 108.514,67.242 109.679,66.805 110.495 C 66.156 111.707,66.056 112.420,66.262 114.389 C 66.438 116.077,66.377 116.800,66.057 116.800 C 65.346 116.800,65.519 117.802,66.360 118.564 C 66.858 119.014,67.212 119.105,67.384 118.826 C 67.849 118.073,68.330 118.369,68.594 119.572 C 68.736 120.217,69.110 120.959,69.426 121.221 C 69.742 121.483,70.000 121.967,70.000 122.296 C 70.000 122.693,70.264 122.824,70.785 122.688 C 71.981 122.375,72.642 123.401,72.007 124.587 C 71.692 125.175,71.622 125.827,71.826 126.273 C 72.008 126.673,72.204 127.450,72.260 128.000 C 72.317 128.550,72.479 129.810,72.619 130.800 C 72.760 131.790,72.878 132.993,72.882 133.474 C 72.888 134.421,73.791 134.983,74.536 134.505 C 75.112 134.135,77.675 133.214,78.152 133.206 C 78.345 133.203,78.388 134.064,78.248 135.121 C 77.782 138.636,78.310 140.798,79.574 140.545 C 81.120 140.236,81.735 141.118,80.983 142.567 C 80.663 143.185,80.400 144.215,80.400 144.856 C 80.400 145.717,80.150 146.115,79.439 146.385 C 77.921 146.962,78.104 150.400,79.652 150.400 C 79.901 150.400,79.999 150.760,79.878 151.224 C 79.746 151.729,79.883 152.134,80.231 152.267 C 81.007 152.565,80.946 153.346,80.000 155.200 C 78.992 157.177,78.989 158.076,79.991 158.702 C 80.643 159.109,80.713 159.376,80.391 160.224 C 79.889 161.543,79.898 161.648,80.500 161.570 C 81.549 161.434,82.000 161.620,82.000 162.191 C 82.000 162.516,82.440 163.070,82.978 163.422 C 83.606 163.834,84.247 164.946,84.770 166.532 C 85.510 168.774,85.632 169.691,85.605 172.800 C 85.593 174.169,86.866 176.460,87.504 176.216 C 87.787 176.107,88.343 176.329,88.740 176.709 C 95.251 182.940,98.619 183.916,98.160 179.441 C 97.712 175.068,98.758 170.650,100.821 168.200 C 101.192 167.760,101.615 166.894,101.761 166.276 C 102.087 164.902,105.301 161.600,106.314 161.600 C 106.718 161.600,107.577 162.109,108.224 162.730 C 109.952 164.391,110.752 164.579,111.190 163.427 C 111.990 161.321,117.771 163.576,118.583 166.311 C 119.085 168.001,119.600 167.955,119.600 166.220 C 119.600 165.332,119.350 164.690,118.900 164.420 C 118.233 164.021,118.233 163.975,118.900 163.456 C 119.758 162.789,119.787 162.253,119.000 161.600 C 118.026 160.792,118.281 159.339,119.555 158.432 C 120.295 157.905,120.803 157.107,120.973 156.205 C 121.151 155.253,121.456 154.799,121.918 154.797 C 122.326 154.795,123.242 153.743,124.200 152.175 C 125.080 150.734,126.430 148.823,127.200 147.926 C 128.033 146.956,128.681 145.715,128.800 144.859 C 128.977 143.591,129.182 143.371,130.551 142.989 C 131.405 142.750,132.788 141.980,133.625 141.278 C 134.461 140.575,135.437 140.000,135.793 140.000 C 136.149 140.000,136.995 139.713,137.673 139.362 C 138.914 138.721,141.414 138.234,146.600 137.623 C 148.140 137.442,150.210 137.022,151.200 136.691 C 152.190 136.359,153.495 135.975,154.100 135.836 C 154.845 135.666,155.200 135.329,155.200 134.792 C 155.200 133.955,155.784 133.726,156.200 134.400 C 156.589 135.030,158.796 134.875,159.055 134.200 C 159.182 133.870,159.635 133.600,160.062 133.600 C 160.489 133.600,161.258 133.147,161.771 132.594 C 162.309 132.013,162.955 131.685,163.300 131.817 C 163.683 131.964,164.357 131.464,165.182 130.423 C 165.889 129.530,166.644 128.800,166.860 128.800 C 167.076 128.800,167.843 128.350,168.564 127.800 C 169.286 127.250,170.056 126.800,170.276 126.800 C 170.496 126.800,171.013 126.427,171.425 125.972 C 172.009 125.327,172.465 125.198,173.486 125.390 C 174.476 125.575,175.222 125.386,176.534 124.618 C 177.489 124.058,178.505 123.600,178.791 123.600 C 179.077 123.600,179.537 123.292,179.813 122.915 C 180.242 122.328,180.408 122.309,180.973 122.778 C 181.542 123.249,181.796 123.206,182.801 122.463 C 183.442 121.988,184.313 121.600,184.735 121.600 C 185.157 121.600,185.726 121.330,186.000 121.000 C 186.274 120.670,186.813 120.400,187.197 120.400 C 187.582 120.400,188.311 119.796,188.817 119.057 C 189.672 117.809,189.861 117.728,191.469 117.909 C 193.034 118.085,193.200 118.022,193.200 117.244 C 193.200 116.526,193.365 116.426,194.205 116.637 C 194.797 116.786,195.468 116.676,195.836 116.370 C 196.180 116.084,197.483 115.814,198.731 115.769 C 199.979 115.725,201.135 115.668,201.300 115.644 C 201.465 115.620,201.603 115.195,201.606 114.700 C 201.610 114.099,201.718 113.967,201.931 114.302 C 203.050 116.064,205.446 117.116,205.800 116.000 C 206.118 114.997,206.818 114.985,208.060 115.961 C 208.695 116.461,209.400 116.651,210.114 116.514 C 210.711 116.400,211.200 116.487,211.200 116.707 C 211.200 116.927,211.560 117.201,212.000 117.316 C 212.479 117.441,212.800 117.862,212.800 118.363 C 212.800 119.022,213.049 119.200,213.973 119.200 C 214.795 119.200,215.222 119.440,215.400 120.000 C 215.692 120.919,216.038 121.002,216.723 120.317 C 217.101 119.939,217.312 120.114,217.691 121.117 C 217.957 121.823,218.396 122.400,218.665 122.400 C 219.496 122.400,221.902 123.991,222.538 124.962 C 223.004 125.673,223.659 125.944,225.407 126.149 C 226.653 126.296,227.939 126.682,228.265 127.008 C 228.591 127.333,229.203 127.600,229.625 127.600 C 230.048 127.600,230.612 127.951,230.880 128.380 C 231.230 128.941,231.506 129.044,231.863 128.748 C 232.210 128.460,232.695 128.520,233.479 128.949 C 234.096 129.285,235.050 129.792,235.600 130.076 C 236.150 130.359,236.798 130.845,237.039 131.156 C 237.825 132.168,238.046 130.945,237.309 129.661 C 236.393 128.065,236.845 127.715,238.503 128.740 C 239.825 129.557,242.783 129.752,243.851 129.092 C 245.028 128.365,249.968 131.873,249.989 133.451 C 249.995 133.919,250.261 134.519,250.580 134.784 C 250.900 135.049,251.282 136.106,251.429 137.133 C 251.577 138.160,251.922 139.270,252.195 139.600 C 252.469 139.930,252.817 140.740,252.968 141.400 C 253.769 144.884,254.059 145.565,254.844 145.814 L 255.670 146.076 254.806 146.681 L 253.942 147.286 254.793 148.192 C 255.424 148.864,255.733 149.912,255.990 152.249 C 256.181 153.982,256.531 156.029,256.768 156.797 C 257.006 157.566,257.200 158.810,257.200 159.562 C 257.200 160.314,257.629 161.666,258.152 162.565 C 258.676 163.464,259.234 164.977,259.392 165.927 C 259.609 167.232,259.925 167.765,260.687 168.112 C 261.614 168.535,261.679 168.732,261.497 170.586 C 261.389 171.694,261.502 173.986,261.750 175.681 L 262.200 178.761 262.966 177.081 C 263.387 176.156,264.220 174.380,264.817 173.134 C 265.499 171.711,265.828 170.479,265.702 169.823 C 265.592 169.248,265.730 167.966,266.007 166.974 C 266.465 165.341,266.442 165.119,265.772 164.629 C 265.110 164.145,265.089 163.967,265.577 162.944 C 266.308 161.409,266.412 154.800,265.705 154.800 C 264.985 154.800,265.051 151.176,265.798 149.746 C 266.636 148.138,266.624 142.684,265.781 141.984 C 265.040 141.369,265.655 140.816,267.092 140.806 C 267.742 140.802,268.051 141.099,268.230 141.900 C 268.703 144.026,268.860 144.410,269.180 144.212 C 269.556 143.980,269.391 136.937,268.985 135.894 C 268.834 135.506,268.808 134.811,268.929 134.351 C 269.049 133.891,268.984 133.083,268.784 132.557 C 268.506 131.828,268.554 131.600,268.985 131.600 C 269.329 131.600,269.598 132.106,269.675 132.900 C 269.780 133.988,269.982 134.221,270.916 134.328 C 271.790 134.428,272.083 134.713,272.269 135.645 C 272.614 137.369,277.200 136.741,277.200 134.970 C 277.200 134.491,278.595 133.682,280.500 133.055 C 281.461 132.739,281.383 131.573,280.384 131.312 C 279.332 131.037,279.582 130.291,280.830 129.982 L 281.800 129.741 280.866 129.433 C 280.111 129.184,279.980 128.933,280.183 128.124 C 280.321 127.574,280.271 126.916,280.071 126.662 C 279.358 125.756,279.249 123.820,279.873 123.125 C 280.378 122.562,280.399 122.209,279.999 120.998 C 279.517 119.536,279.764 118.571,280.370 119.551 C 280.916 120.435,282.187 119.901,282.323 118.731 C 282.411 117.971,282.230 117.600,281.687 117.427 C 280.055 116.910,278.995 115.278,279.471 114.016 C 279.829 113.069,279.773 112.639,279.163 111.635 C 278.700 110.875,278.338 109.310,278.207 107.513 C 277.975 104.333,277.716 103.200,277.222 103.200 C 277.043 103.200,276.665 102.615,276.381 101.900 C 275.540 99.777,275.326 99.630,273.734 100.069 C 271.877 100.582,271.653 100.313,271.145 96.962 C 270.574 93.193,269.519 91.169,267.678 90.310 C 266.133 89.589,263.732 87.666,261.133 85.067 L 259.600 83.535 259.613 85.067 C 259.620 85.910,259.890 86.949,260.213 87.376 C 260.536 87.804,260.801 88.434,260.801 88.776 C 260.804 89.841,263.213 95.376,263.822 95.717 C 264.570 96.135,264.573 98.559,263.827 99.178 C 262.894 99.952,261.313 98.651,261.010 96.860 C 260.841 95.860,260.470 95.245,259.879 94.986 C 259.396 94.774,258.942 94.195,258.872 93.699 C 258.802 93.204,258.402 92.615,257.984 92.391 C 257.394 92.076,257.272 91.693,257.440 90.692 C 257.649 89.451,257.632 89.431,257.013 90.198 C 256.248 91.145,255.617 90.513,255.606 88.789 C 255.600 87.730,254.138 86.144,253.330 86.319 C 252.662 86.464,252.231 85.609,252.724 85.116 C 253.281 84.559,252.871 83.608,252.057 83.568 C 251.642 83.548,251.584 83.462,251.900 83.335 C 252.750 82.992,252.452 82.100,251.400 81.836 C 250.341 81.570,250.108 80.852,250.843 80.117 C 251.167 79.793,251.056 79.551,250.430 79.216 C 249.960 78.964,249.602 78.543,249.635 78.279 C 249.835 76.681,248.195 75.352,247.517 76.563 C 246.695 78.032,245.821 75.389,245.975 71.900 C 246.068 69.812,245.468 69.399,244.268 70.725 C 243.742 71.306,243.690 71.720,244.006 72.822 C 245.069 76.527,243.625 82.956,241.881 82.286 C 241.284 82.057,239.174 79.153,238.692 77.897 C 238.544 77.510,237.967 76.986,237.411 76.732 C 236.855 76.479,236.400 75.940,236.400 75.536 C 236.400 75.131,236.220 74.800,236.000 74.800 C 235.780 74.800,235.597 74.395,235.594 73.900 C 235.575 71.087,232.918 71.558,232.166 74.507 C 231.906 75.526,231.784 76.451,231.896 76.563 C 232.008 76.674,231.974 77.088,231.821 77.483 C 231.573 78.121,231.491 78.132,231.071 77.581 C 230.812 77.241,229.997 76.717,229.259 76.416 C 227.022 75.504,224.172 72.400,225.571 72.400 C 225.776 72.400,226.212 72.669,226.541 72.998 C 226.870 73.328,227.629 73.783,228.226 74.010 L 229.313 74.423 229.050 71.855 C 228.903 70.419,228.961 68.829,229.182 68.248 C 229.400 67.673,229.434 66.820,229.256 66.340 C 228.986 65.610,228.895 65.576,228.685 66.123 C 228.494 66.621,226.076 68.000,225.395 68.000 C 225.039 68.000,224.841 65.868,225.143 65.292 C 225.559 64.497,225.196 63.435,224.017 62.000 L 223.196 61.000 222.098 62.246 C 219.871 64.774,213.673 63.120,212.965 59.809 C 212.675 58.450,211.548 57.200,210.613 57.200 C 210.099 57.200,210.076 57.333,210.479 57.978 M223.867 57.867 C 223.391 58.343,223.581 60.400,224.100 60.394 C 225.322 60.379,225.937 59.088,225.165 58.158 C 224.656 57.545,224.274 57.459,223.867 57.867 M146.667 62.667 C 146.003 63.330,146.472 64.000,147.600 64.000 C 148.969 64.000,149.104 63.719,148.100 62.957 C 147.296 62.346,147.039 62.294,146.667 62.667 M127.587 65.816 C 127.163 66.327,127.149 66.627,127.524 67.227 C 127.786 67.646,128.000 68.442,128.000 68.995 C 128.000 70.485,128.790 70.215,128.863 68.700 C 129.005 65.801,128.516 64.696,127.587 65.816 M214.400 67.400 L 215.339 68.400 214.414 68.400 C 213.572 68.400,212.444 67.442,212.413 66.700 C 212.385 66.055,213.507 66.450,214.400 67.400 M202.000 71.600 C 202.000 71.820,201.640 72.000,201.200 72.000 C 200.760 72.000,200.400 71.820,200.400 71.600 C 200.400 71.380,200.760 71.200,201.200 71.200 C 201.640 71.200,202.000 71.380,202.000 71.600 M159.200 75.157 C 159.200 75.648,158.073 76.042,157.824 75.638 C 157.713 75.459,157.737 75.196,157.878 75.056 C 158.259 74.675,159.200 74.747,159.200 75.157 M229.660 75.180 C 229.748 75.444,229.950 75.647,230.110 75.630 C 230.588 75.581,230.496 75.032,229.980 74.860 C 229.716 74.772,229.572 74.916,229.660 75.180 M94.188 93.980 C 94.567 94.594,92.790 94.733,92.193 94.136 C 91.086 93.029,91.444 92.384,92.792 93.056 C 93.448 93.383,94.076 93.799,94.188 93.980 M75.388 107.980 C 75.746 108.560,74.260 109.211,73.578 108.772 C 73.076 108.449,73.079 108.348,73.600 108.006 C 74.364 107.504,75.087 107.494,75.388 107.980 M83.922 109.900 C 83.782 112.076,83.063 112.461,82.872 110.462 C 82.723 108.906,82.994 108.000,83.609 108.000 C 83.878 108.000,83.997 108.725,83.922 109.900 M84.408 128.610 C 84.686 128.945,84.798 129.335,84.657 129.476 C 84.516 129.618,84.400 129.523,84.400 129.267 C 84.400 129.010,84.130 128.800,83.800 128.800 C 83.470 128.800,83.200 128.620,83.200 128.400 C 83.200 127.806,83.832 127.916,84.408 128.610 M265.125 138.497 C 265.043 139.351,264.761 139.839,264.300 139.926 C 263.503 140.077,263.371 139.176,264.014 137.974 C 264.656 136.774,265.264 137.060,265.125 138.497 M80.800 138.951 C 80.800 139.034,80.530 139.326,80.200 139.600 C 79.709 140.008,79.600 139.980,79.600 139.449 C 79.600 139.092,79.870 138.800,80.200 138.800 C 80.530 138.800,80.800 138.868,80.800 138.951 M267.899 145.600 C 267.552 146.913,267.714 152.399,268.100 152.400 C 268.265 152.400,268.400 151.692,268.400 150.826 C 268.400 149.960,268.576 148.790,268.790 148.226 C 269.018 147.627,269.029 147.200,268.815 147.200 C 268.615 147.200,268.386 146.615,268.307 145.900 C 268.172 144.670,268.149 144.654,267.899 145.600 M139.095 172.401 C 137.918 172.755,134.891 174.091,133.138 175.031 C 132.554 175.344,131.686 175.600,131.210 175.600 C 130.733 175.600,130.063 175.879,129.722 176.221 C 129.303 176.640,128.731 176.760,127.960 176.591 C 126.423 176.254,125.200 176.693,125.200 177.582 C 125.200 178.098,125.609 178.388,126.600 178.574 C 129.108 179.044,128.083 179.600,124.709 179.600 C 122.899 179.600,120.064 179.858,118.409 180.174 C 116.754 180.490,112.833 181.138,109.695 181.613 C 106.557 182.089,103.281 182.820,102.414 183.239 C 101.548 183.657,100.693 184.000,100.516 184.000 C 98.240 184.000,98.532 188.370,100.977 190.909 C 102.395 192.383,103.200 193.561,103.200 194.163 C 103.200 195.067,103.783 197.311,105.028 201.200 C 105.345 202.190,105.603 203.382,105.602 203.848 C 105.601 204.315,106.160 206.025,106.844 207.648 C 107.529 209.272,108.372 211.320,108.719 212.200 C 109.066 213.080,109.586 214.084,109.875 214.431 C 110.164 214.779,110.400 215.342,110.400 215.683 C 110.400 216.023,110.670 216.526,111.000 216.800 C 111.330 217.074,111.600 217.464,111.600 217.666 C 111.600 218.986,117.464 225.370,119.862 226.662 C 120.598 227.058,121.200 227.521,121.200 227.691 C 121.200 227.861,121.526 228.000,121.924 228.000 C 122.321 228.000,122.996 228.264,123.424 228.587 C 123.851 228.910,124.707 229.180,125.326 229.187 C 125.946 229.194,126.846 229.417,127.326 229.682 C 130.346 231.350,131.988 231.570,141.600 231.593 C 148.942 231.611,151.350 231.487,152.600 231.025 C 153.480 230.701,154.594 230.427,155.076 230.418 C 155.558 230.408,156.064 230.220,156.200 230.000 C 156.336 229.780,156.752 229.597,157.124 229.593 C 158.293 229.582,165.798 225.328,167.008 223.991 C 167.405 223.553,167.925 222.852,168.164 222.434 C 168.404 222.016,169.520 220.172,170.645 218.337 C 171.769 216.502,173.639 213.200,174.798 211.000 C 177.329 206.200,179.222 203.183,180.384 202.101 C 180.856 201.661,181.397 200.784,181.587 200.151 C 181.881 199.169,181.936 199.132,181.966 199.900 C 182.009 201.046,183.205 201.099,184.200 200.000 C 185.071 199.037,191.012 198.763,190.700 199.700 C 190.609 199.975,190.009 200.314,189.367 200.453 C 188.609 200.617,188.480 200.723,189.000 200.756 C 189.955 200.817,192.295 204.364,193.515 207.600 C 197.445 218.028,198.741 220.850,199.859 221.405 C 200.331 221.640,202.221 223.375,204.059 225.259 C 207.363 228.648,211.740 231.600,213.462 231.600 C 213.894 231.600,214.596 231.864,215.024 232.187 C 215.451 232.510,216.571 232.780,217.513 232.787 C 218.455 232.794,219.872 233.070,220.662 233.400 C 221.683 233.827,223.569 234.000,227.199 234.000 C 230.710 234.000,232.829 233.813,234.000 233.400 C 234.935 233.070,236.263 232.794,236.950 232.787 C 237.638 232.780,238.549 232.510,238.976 232.187 C 239.404 231.864,240.244 231.600,240.844 231.600 C 241.933 231.600,244.076 230.646,245.110 229.700 C 245.411 229.425,245.895 229.200,246.186 229.200 C 246.477 229.200,246.818 228.930,246.945 228.600 C 247.071 228.270,247.451 228.000,247.787 228.000 C 248.124 228.000,248.400 227.730,248.400 227.400 C 248.400 227.070,248.580 226.800,248.800 226.800 C 249.403 226.800,250.820 225.260,250.436 225.022 C 250.251 224.908,249.655 225.217,249.111 225.707 C 246.973 227.635,246.079 228.247,243.587 229.487 C 235.334 233.592,219.679 233.912,212.400 230.125 C 211.850 229.839,211.175 229.604,210.900 229.602 C 210.625 229.601,210.400 229.420,210.400 229.200 C 210.400 228.980,210.158 228.800,209.863 228.800 C 208.192 228.800,202.509 221.756,200.504 217.200 C 199.972 215.990,199.374 214.640,199.175 214.200 C 198.464 212.625,197.958 209.379,198.054 207.010 C 198.118 205.425,197.936 204.189,197.521 203.400 C 195.887 200.286,198.568 193.506,201.833 192.497 C 203.004 192.135,203.057 192.166,202.879 193.101 C 202.714 193.962,202.786 194.037,203.445 193.691 C 205.344 192.694,207.280 195.249,206.443 197.647 C 205.416 200.595,205.634 200.847,209.100 200.717 L 212.200 200.600 212.196 199.300 C 212.194 198.585,212.329 198.000,212.496 198.000 C 212.663 198.000,212.806 198.405,212.813 198.900 C 212.835 200.481,214.258 201.041,219.689 201.607 C 225.875 202.252,226.369 202.096,227.876 199.023 C 229.359 196.000,231.598 196.092,233.730 199.265 C 234.818 200.885,238.803 201.557,238.797 200.121 C 238.795 199.410,236.573 197.600,235.704 197.600 C 235.458 197.600,234.617 196.997,233.836 196.260 C 233.054 195.522,232.321 195.013,232.207 195.127 C 232.092 195.241,231.594 195.136,231.099 194.893 C 227.008 192.885,220.304 191.008,218.680 191.416 C 217.421 191.732,216.877 190.954,218.094 190.579 C 218.592 190.425,219.783 189.776,220.739 189.137 C 222.491 187.966,227.964 187.771,228.635 188.856 C 228.752 189.045,229.306 189.200,229.868 189.200 C 230.882 189.200,234.800 191.456,234.800 192.040 C 234.800 192.209,235.131 192.451,235.535 192.579 C 235.939 192.708,237.126 193.633,238.173 194.636 C 239.219 195.638,240.163 196.371,240.270 196.263 C 240.556 195.978,239.638 194.400,239.186 194.400 C 238.974 194.400,238.794 194.175,238.786 193.900 C 238.741 192.365,233.820 188.121,232.932 188.852 C 232.333 189.346,232.295 189.291,232.541 188.300 C 232.785 187.323,232.705 187.200,231.827 187.200 C 231.284 187.200,230.685 186.924,230.497 186.587 C 230.175 186.013,228.055 185.789,221.420 185.628 C 220.659 185.610,220.378 185.462,220.627 185.213 C 220.841 184.999,225.516 184.705,231.063 184.556 C 241.609 184.272,241.780 184.288,249.919 186.228 C 255.146 187.474,260.800 191.410,260.800 193.803 C 260.800 194.541,260.967 194.681,261.634 194.507 C 262.781 194.207,263.030 193.317,262.218 192.419 C 261.844 192.006,261.594 191.338,261.662 190.934 C 261.892 189.576,260.500 187.309,259.303 187.092 C 258.271 186.904,256.455 186.311,254.600 185.554 C 253.653 185.168,251.002 184.627,245.000 183.596 C 242.580 183.180,239.610 182.643,238.400 182.402 C 237.190 182.161,234.625 181.967,232.700 181.970 C 230.696 181.974,229.200 181.811,229.200 181.589 C 229.200 181.375,230.415 181.198,231.900 181.195 C 235.971 181.186,238.037 180.173,235.576 179.392 C 235.122 179.248,234.553 178.696,234.311 178.165 C 234.070 177.634,233.708 177.200,233.509 177.200 C 233.309 177.200,233.257 176.850,233.393 176.422 C 233.753 175.286,232.294 174.533,229.104 174.210 C 227.622 174.060,226.297 173.757,226.161 173.538 C 225.846 173.027,217.422 173.541,215.995 174.157 C 214.777 174.684,209.276 179.242,209.231 179.762 C 209.131 180.933,207.063 182.852,206.149 182.623 C 205.375 182.429,205.112 182.580,204.801 183.398 C 204.588 183.957,203.956 184.589,203.396 184.801 C 202.837 185.014,202.233 185.582,202.055 186.063 C 201.841 186.641,201.634 186.778,201.442 186.468 C 200.896 185.584,200.400 186.001,200.400 187.346 C 200.400 188.764,200.245 188.910,195.600 191.858 C 192.246 193.986,179.250 193.361,176.369 190.932 C 176.021 190.639,175.431 190.400,175.056 190.400 C 174.254 190.400,173.637 189.121,174.328 188.891 C 174.811 188.730,175.007 187.200,174.544 187.200 C 174.403 187.200,174.049 187.515,173.757 187.900 C 173.263 188.551,173.225 188.539,173.213 187.733 C 173.206 187.257,173.406 186.798,173.657 186.714 C 174.504 186.432,173.226 184.785,171.964 184.533 C 171.107 184.361,170.491 183.815,169.773 182.591 C 168.788 180.909,167.590 180.170,166.927 180.833 C 166.263 181.497,164.780 180.785,165.198 180.004 C 165.476 179.484,165.368 179.055,164.788 178.387 C 164.355 177.887,164.000 177.305,164.000 177.094 C 164.000 176.871,163.401 176.823,162.565 176.980 C 161.274 177.222,161.155 177.172,161.376 176.477 C 161.574 175.851,161.378 175.656,160.344 175.449 C 159.641 175.308,158.453 174.725,157.702 174.152 C 156.560 173.281,155.805 173.081,153.083 172.928 C 151.294 172.827,149.567 172.597,149.245 172.417 C 148.924 172.237,148.168 172.262,147.566 172.472 C 146.852 172.721,145.666 172.705,144.162 172.427 C 141.523 171.939,140.646 171.934,139.095 172.401 M261.919 181.200 C 261.782 182.190,261.544 183.495,261.389 184.100 C 261.174 184.939,261.250 185.200,261.711 185.200 C 262.560 185.200,262.695 184.547,262.413 181.800 L 262.166 179.400 261.919 181.200 M133.323 182.042 C 137.730 182.719,138.156 184.000,133.974 184.000 C 133.271 184.000,132.800 184.211,132.800 184.525 C 132.800 185.071,130.779 187.200,130.261 187.200 C 129.867 187.200,129.175 187.769,126.220 190.526 C 124.849 191.805,123.158 193.197,122.464 193.620 C 121.539 194.182,121.199 194.685,121.195 195.494 C 121.192 196.102,121.087 196.981,120.962 197.447 C 120.644 198.631,123.179 200.254,124.360 199.622 C 124.906 199.329,125.231 199.327,125.408 199.613 C 125.549 199.842,126.334 199.989,127.152 199.941 C 127.970 199.893,128.833 199.973,129.070 200.120 C 129.708 200.514,132.181 198.705,132.321 197.741 C 132.512 196.420,134.435 194.868,136.237 194.580 L 137.873 194.318 137.692 195.556 C 137.040 199.998,138.743 201.232,145.181 200.981 C 150.824 200.761,151.258 200.519,152.060 197.137 C 152.784 194.085,153.242 193.913,155.500 195.845 C 157.351 197.429,157.672 198.596,156.370 199.010 C 155.260 199.362,155.480 199.508,158.159 200.206 C 162.472 201.329,165.220 200.552,163.645 198.654 C 162.629 197.430,164.354 193.892,165.491 194.869 C 166.601 195.823,167.499 196.003,168.020 195.376 C 168.283 195.059,168.853 194.800,169.286 194.800 C 169.738 194.800,170.164 194.459,170.284 194.000 C 170.528 193.068,171.200 192.921,171.200 193.800 C 171.200 194.130,171.429 194.400,171.709 194.400 C 172.227 194.400,173.335 196.258,173.802 197.909 C 174.225 199.401,173.656 201.135,172.699 201.276 C 171.250 201.488,168.911 206.134,168.206 210.200 C 168.053 211.080,167.787 211.980,167.615 212.200 C 166.906 213.103,166.718 216.400,167.375 216.400 C 167.727 216.400,168.000 216.061,168.000 215.624 C 168.000 215.197,168.191 214.729,168.425 214.585 C 168.658 214.440,169.018 213.935,169.224 213.461 C 169.430 212.988,169.757 212.330,169.952 212.000 C 170.147 211.670,170.658 210.330,171.089 209.021 C 171.520 207.713,172.081 206.573,172.336 206.488 C 173.005 206.265,172.928 208.996,172.250 209.559 C 171.947 209.810,171.581 210.687,171.437 211.508 C 171.292 212.328,170.864 213.571,170.487 214.269 C 170.109 214.966,169.363 216.361,168.829 217.369 C 168.295 218.376,167.722 219.200,167.556 219.200 C 167.390 219.200,167.139 219.561,167.000 220.002 C 166.346 222.060,160.925 226.479,157.200 227.990 C 155.990 228.481,154.640 229.041,154.200 229.234 C 148.829 231.595,130.794 231.538,128.220 229.152 C 128.011 228.958,127.596 228.800,127.298 228.800 C 126.441 228.800,123.168 227.213,121.209 225.848 C 116.931 222.867,114.682 220.097,111.914 214.400 C 109.383 209.190,107.841 204.417,107.053 199.357 C 105.303 188.123,109.787 183.741,124.600 182.212 C 127.240 181.939,129.636 181.690,129.923 181.658 C 130.211 181.626,131.741 181.799,133.323 182.042 M142.500 183.086 C 142.225 183.185,142.000 183.522,142.000 183.833 C 142.000 184.171,141.596 184.400,141.000 184.400 C 140.284 184.400,140.000 184.184,140.000 183.640 C 140.000 183.026,140.289 182.882,141.500 182.893 C 142.325 182.900,142.775 182.987,142.500 183.086 M210.000 185.243 C 210.000 185.439,209.640 185.600,209.200 185.600 C 208.420 185.600,208.158 185.176,208.639 184.694 C 208.960 184.374,210.000 184.793,210.000 185.243 M212.000 187.600 C 212.000 187.820,211.730 188.000,211.400 188.000 C 211.070 188.000,210.800 187.820,210.800 187.600 C 210.800 187.380,211.070 187.200,211.400 187.200 C 211.730 187.200,212.000 187.380,212.000 187.600 M146.700 188.146 C 148.431 188.250,147.580 189.147,145.300 189.623 C 144.035 189.887,141.616 190.441,139.924 190.854 C 137.433 191.462,136.650 191.515,135.808 191.131 C 134.429 190.503,134.681 189.498,136.300 189.167 C 137.012 189.021,137.827 188.710,138.110 188.475 C 138.718 187.970,142.411 187.635,144.400 187.903 C 145.170 188.007,146.205 188.117,146.700 188.146 M206.000 189.933 C 206.000 190.454,205.524 190.801,205.138 190.561 C 204.724 190.306,205.081 189.600,205.624 189.600 C 205.831 189.600,206.000 189.750,206.000 189.933 M94.000 190.776 C 94.000 191.203,94.180 191.664,94.400 191.800 C 94.620 191.936,94.800 192.542,94.800 193.147 C 94.800 193.752,95.064 194.596,95.387 195.024 C 95.710 195.451,95.980 196.104,95.987 196.476 C 95.994 196.848,96.200 197.276,96.444 197.427 C 96.755 197.619,96.812 197.238,96.634 196.151 C 96.495 195.298,96.561 193.985,96.781 193.234 C 97.424 191.042,96.965 190.000,95.357 190.000 C 94.280 190.000,94.000 190.160,94.000 190.776 M212.072 206.100 C 212.142 206.595,212.380 207.000,212.600 207.000 C 212.820 207.000,213.058 206.595,213.128 206.100 C 213.216 205.481,213.051 205.200,212.600 205.200 C 212.149 205.200,211.984 205.481,212.072 206.100 M144.520 268.530 C 144.125 269.168,146.536 270.771,147.913 270.786 C 148.636 270.794,150.115 271.250,151.200 271.800 C 155.628 274.044,156.701 272.018,152.400 269.533 C 150.529 268.453,145.002 267.749,144.520 268.530 M208.490 269.201 C 207.770 269.641,206.909 270.000,206.577 270.000 C 206.246 270.000,205.831 270.387,205.656 270.860 C 205.481 271.333,204.283 272.291,202.993 272.987 C 199.735 274.749,199.770 275.312,203.077 274.315 C 205.365 273.626,206.067 273.566,207.472 273.939 C 210.487 274.738,212.148 273.686,211.903 271.132 C 211.633 268.321,210.752 267.823,208.490 269.201 M171.867 275.067 C 170.924 276.009,171.719 276.398,174.500 276.354 C 176.755 276.318,177.089 276.246,176.000 276.028 C 175.230 275.874,174.207 275.535,173.726 275.274 C 172.735 274.736,172.251 274.682,171.867 275.067 M190.200 276.000 C 189.491 276.305,189.525 276.347,190.500 276.372 C 191.105 276.387,191.600 276.220,191.600 276.000 C 191.600 275.531,191.293 275.531,190.200 276.000 M178.600 276.400 C 178.736 276.620,179.096 276.800,179.400 276.800 C 179.704 276.800,180.064 276.620,180.200 276.400 C 180.341 276.172,179.996 276.000,179.400 276.000 C 178.804 276.000,178.459 276.172,178.600 276.400 M184.707 276.290 C 185.426 276.379,186.506 276.377,187.107 276.286 C 187.708 276.195,187.120 276.122,185.800 276.124 C 184.480 276.126,183.988 276.201,184.707 276.290 M109.829 284.503 C 109.404 285.216,109.099 286.032,109.149 286.315 C 109.200 286.598,108.681 287.810,107.995 289.009 C 107.309 290.208,106.788 291.506,106.836 291.894 C 106.885 292.282,106.738 293.050,106.510 293.600 C 106.282 294.150,105.797 295.313,105.432 296.185 C 105.068 297.057,104.688 298.731,104.588 299.906 C 104.488 301.080,104.234 302.363,104.023 302.757 C 103.812 303.150,103.638 303.816,103.635 304.236 C 103.623 305.825,102.543 310.197,102.180 310.126 C 99.510 309.604,99.071 309.472,99.495 309.317 C 100.024 309.124,101.600 305.860,101.600 304.958 C 101.600 304.092,99.726 303.082,98.631 303.357 C 97.759 303.575,96.997 304.235,94.200 307.192 C 93.760 307.657,93.111 308.303,92.757 308.628 C 92.366 308.988,92.189 309.607,92.304 310.210 C 92.464 311.049,92.341 311.200,91.496 311.200 C 90.947 311.200,90.259 311.488,89.968 311.839 C 89.608 312.273,89.038 312.414,88.196 312.277 C 87.161 312.109,86.828 312.266,86.180 313.230 C 85.753 313.865,84.908 314.589,84.302 314.841 C 83.696 315.092,83.200 315.449,83.200 315.634 C 83.200 316.178,81.527 316.939,79.800 317.179 C 78.367 317.379,78.212 317.509,78.318 318.422 C 78.537 320.312,75.532 322.800,73.030 322.800 C 72.062 322.800,71.454 323.045,71.130 323.564 C 70.666 324.307,70.612 324.301,69.233 323.364 C 68.453 322.834,67.599 322.400,67.336 322.400 C 67.073 322.400,66.583 322.126,66.248 321.791 C 65.702 321.245,65.593 321.265,65.207 321.987 C 64.853 322.649,64.646 322.711,64.041 322.333 C 63.625 322.073,62.979 322.006,62.553 322.179 C 61.847 322.465,61.857 322.511,62.711 322.908 C 64.013 323.514,63.558 324.214,61.925 324.120 C 60.573 324.042,59.200 325.751,59.200 327.511 C 59.200 328.309,58.518 328.397,57.249 327.764 C 55.992 327.138,55.506 325.553,56.400 325.000 C 57.108 324.562,56.827 322.741,55.900 321.763 C 54.786 320.588,53.600 320.500,53.600 321.592 C 53.600 322.299,53.409 322.359,51.834 322.143 C 50.198 321.918,50.059 321.970,49.934 322.850 C 49.812 323.715,49.635 323.789,47.963 323.673 C 46.394 323.565,46.036 323.686,45.502 324.501 C 45.054 325.185,44.212 325.600,42.538 325.966 C 41.252 326.246,39.801 326.728,39.314 327.038 C 38.827 327.347,37.927 327.606,37.314 327.613 C 36.701 327.621,35.480 328.154,34.600 328.798 C 33.720 329.442,32.460 330.271,31.800 330.638 C 30.390 331.424,27.294 334.672,26.965 335.711 C 26.807 336.209,26.496 336.358,25.968 336.190 C 25.540 336.054,25.200 336.134,25.200 336.371 C 25.200 336.605,23.592 338.435,21.626 340.439 C 19.661 342.442,17.772 344.648,17.428 345.340 C 16.483 347.245,15.905 347.841,14.717 348.137 C 14.017 348.311,13.404 348.892,12.983 349.780 C 12.624 350.535,11.897 351.438,11.366 351.786 C 10.834 352.134,10.400 352.774,10.400 353.209 C 10.400 353.665,10.131 354.000,9.764 354.000 C 8.178 354.000,4.526 358.522,5.223 359.624 C 5.796 360.529,5.756 360.573,2.809 362.230 L 0.019 363.800 0.009 448.100 L 0.000 532.400 161.000 532.400 C 266.504 532.400,322.000 532.264,322.000 532.006 C 322.000 531.503,321.244 528.180,320.760 526.557 C 320.342 525.157,319.215 509.742,319.206 505.316 C 319.198 501.659,319.779 501.003,323.360 500.619 C 324.736 500.472,327.558 499.898,329.631 499.344 C 331.704 498.789,334.240 498.125,335.267 497.868 C 336.294 497.610,337.269 497.265,337.434 497.100 C 337.598 496.935,338.035 496.800,338.405 496.800 C 339.020 496.800,345.309 493.764,347.550 492.385 C 350.504 490.567,359.060 482.045,360.200 479.786 C 360.640 478.914,361.225 478.056,361.500 477.880 C 361.775 477.704,362.000 477.375,362.000 477.148 C 362.000 476.682,364.213 473.939,366.600 471.448 C 371.769 466.053,372.137 464.941,370.200 460.562 C 369.650 459.318,369.200 457.973,369.200 457.574 C 369.200 456.241,369.855 456.421,370.524 457.937 C 372.181 461.693,374.466 462.127,382.400 460.193 L 385.000 459.559 385.100 457.679 C 385.180 456.172,385.437 455.584,386.400 454.706 C 387.904 453.334,387.899 453.284,386.200 452.574 C 385.430 452.252,384.800 451.789,384.800 451.545 C 384.800 451.269,384.366 451.187,383.660 451.328 C 382.622 451.536,382.536 451.468,382.706 450.577 C 382.866 449.744,382.709 449.562,381.647 449.349 C 380.958 449.212,380.400 448.847,380.400 448.536 C 380.400 447.602,376.987 446.349,375.739 446.823 C 374.944 447.125,374.531 447.081,374.044 446.643 C 372.820 445.542,368.969 448.280,367.773 451.103 C 367.313 452.187,367.304 452.178,367.008 450.295 C 366.843 449.248,366.369 447.959,365.954 447.432 C 365.539 446.905,365.200 446.299,365.200 446.085 C 365.200 445.872,364.576 444.660,363.813 443.393 C 363.050 442.126,362.217 440.439,361.962 439.645 C 361.707 438.850,361.289 437.930,361.033 437.600 C 360.777 437.270,360.042 435.830,359.400 434.400 C 358.758 432.970,358.014 431.530,357.748 431.200 C 357.481 430.870,356.696 429.430,356.004 428.000 C 355.312 426.570,354.120 424.500,353.356 423.400 C 352.592 422.300,351.550 420.590,351.041 419.600 C 350.531 418.610,349.731 417.170,349.262 416.400 C 348.794 415.630,348.230 414.590,348.011 414.089 C 347.791 413.589,347.430 412.959,347.209 412.689 C 346.625 411.980,343.200 405.178,343.200 404.728 C 343.200 404.518,342.762 403.773,342.227 403.072 C 341.693 402.370,341.063 401.347,340.828 400.798 C 340.594 400.249,340.234 399.530,340.030 399.200 C 339.825 398.870,339.553 398.265,339.424 397.855 C 339.118 396.879,338.021 397.696,337.956 398.949 C 337.932 399.417,337.756 399.003,337.565 398.029 C 337.374 397.054,336.873 395.344,336.452 394.229 C 335.340 391.280,334.800 389.444,334.800 388.610 C 334.800 388.207,334.282 386.780,333.649 385.439 C 333.017 384.097,331.932 381.200,331.239 379.000 C 329.261 372.723,326.393 366.059,324.942 364.369 C 324.644 364.021,324.400 363.554,324.400 363.331 C 324.400 362.550,322.515 360.690,322.216 361.174 C 322.059 361.428,322.122 361.865,322.356 362.147 C 322.780 362.658,322.246 363.600,321.533 363.600 C 321.364 363.600,320.748 362.025,320.163 360.100 C 319.578 358.175,318.583 355.475,317.950 354.099 C 317.318 352.723,316.800 351.496,316.800 351.371 C 316.800 351.246,316.305 350.392,315.700 349.472 C 315.095 348.552,314.242 347.080,313.804 346.200 C 313.366 345.320,312.898 344.510,312.763 344.400 C 312.628 344.290,312.215 343.570,311.844 342.800 C 311.473 342.030,310.728 340.860,310.189 340.200 L 309.208 339.000 309.352 343.400 C 309.431 345.820,309.421 346.780,309.330 345.534 C 309.233 344.219,308.919 343.065,308.582 342.785 C 308.262 342.519,308.000 341.950,308.000 341.519 C 308.000 341.089,307.566 339.626,307.036 338.268 C 306.506 336.911,305.944 335.350,305.787 334.800 C 305.232 332.856,303.231 328.985,302.169 327.800 L 301.093 326.600 301.382 327.800 C 301.899 329.949,302.233 338.182,301.815 338.478 C 301.226 338.896,301.188 338.785,300.386 334.332 C 298.711 325.033,296.059 319.592,292.895 318.959 C 291.481 318.676,290.247 320.328,290.668 321.939 C 290.792 322.413,290.706 322.800,290.477 322.800 C 290.239 322.800,289.938 324.360,289.777 326.424 L 289.493 330.048 288.790 328.477 C 288.403 327.614,287.959 326.298,287.802 325.554 C 287.437 323.823,284.989 318.189,283.997 316.795 C 283.130 315.578,278.588 313.200,277.131 313.200 C 276.597 313.200,275.989 313.047,275.780 312.859 C 274.635 311.831,267.219 311.223,266.142 312.068 C 265.855 312.294,265.456 312.199,265.070 311.813 C 264.621 311.364,264.201 311.296,263.508 311.559 C 262.986 311.757,262.119 311.836,261.580 311.733 C 260.524 311.532,260.343 313.695,261.030 318.300 C 261.275 319.938,261.049 320.316,260.198 319.694 C 259.732 319.353,258.800 316.836,258.800 315.918 C 258.800 315.574,258.364 315.006,257.830 314.657 C 257.297 314.307,256.752 313.702,256.620 313.311 C 256.300 312.366,253.778 311.182,253.237 311.723 C 252.966 311.994,252.627 311.955,252.205 311.604 C 251.676 311.165,251.425 311.225,250.617 311.984 C 250.089 312.480,249.490 312.821,249.286 312.743 C 248.413 312.406,243.600 307.654,243.600 307.128 C 243.600 306.110,242.048 304.844,240.502 304.601 C 237.390 304.111,237.169 304.107,237.317 304.552 C 237.399 304.799,237.811 305.061,238.233 305.136 C 240.046 305.457,241.008 308.046,239.595 308.803 C 239.002 309.120,238.882 309.413,239.141 309.917 C 239.334 310.293,239.417 310.807,239.326 311.061 C 239.234 311.314,239.709 312.414,240.380 313.505 C 241.051 314.596,241.600 315.616,241.600 315.771 C 241.600 315.926,242.050 316.643,242.600 317.364 C 243.150 318.086,243.600 318.961,243.600 319.309 C 243.600 319.658,243.883 320.225,244.228 320.571 C 244.573 320.916,244.785 321.604,244.699 322.099 C 244.547 322.978,244.532 322.975,244.097 321.942 C 243.852 321.360,243.482 320.820,243.274 320.742 C 243.067 320.664,242.522 319.979,242.064 319.221 C 240.034 315.855,229.889 305.098,227.062 303.313 C 225.434 302.285,224.697 302.384,225.524 303.519 C 225.797 303.894,226.400 305.010,226.865 306.000 C 227.330 306.990,227.956 307.944,228.255 308.120 C 228.555 308.296,228.800 308.673,228.800 308.958 C 228.800 309.244,229.098 310.074,229.461 310.802 C 229.848 311.579,230.094 312.934,230.053 314.074 C 230.002 315.525,230.146 316.081,230.619 316.262 C 231.110 316.451,231.195 316.845,230.998 318.012 C 230.840 318.949,230.911 319.622,231.188 319.793 C 231.433 319.944,231.517 320.430,231.377 320.873 C 231.162 321.551,231.254 321.637,231.961 321.413 C 232.664 321.189,232.800 321.312,232.800 322.173 C 232.800 322.738,232.627 323.200,232.415 323.200 C 231.914 323.200,232.331 328.429,232.885 329.100 C 233.170 329.445,233.166 329.759,232.873 330.112 C 232.331 330.765,233.452 336.806,234.233 337.434 C 234.588 337.720,234.637 338.003,234.377 338.263 C 234.117 338.523,234.264 339.296,234.808 340.524 C 235.418 341.904,235.529 342.585,235.233 343.138 C 234.903 343.754,235.022 343.973,235.908 344.376 C 236.890 344.824,236.920 344.901,236.258 345.272 C 235.772 345.544,235.604 345.963,235.750 346.542 C 236.077 347.844,235.441 348.514,233.835 348.559 C 232.780 348.589,232.446 348.455,232.597 348.063 C 233.312 346.201,233.285 345.547,232.483 345.338 C 231.769 345.151,231.719 344.978,232.077 343.950 C 232.303 343.304,232.399 342.441,232.292 342.032 C 232.186 341.623,232.246 341.050,232.426 340.758 C 232.614 340.453,232.555 339.987,232.287 339.663 C 232.029 339.353,231.765 338.272,231.699 337.259 C 231.633 336.247,231.404 335.244,231.189 335.029 C 230.975 334.815,230.800 333.877,230.800 332.944 C 230.800 332.011,230.628 331.141,230.417 331.011 C 230.207 330.881,230.136 330.510,230.260 330.187 C 230.384 329.864,230.355 329.285,230.195 328.900 C 230.035 328.515,229.844 327.750,229.769 327.200 C 229.487 325.114,228.847 321.740,228.441 320.200 C 228.209 319.320,228.015 318.030,228.010 317.333 C 228.004 316.637,227.810 316.003,227.579 315.926 C 227.112 315.771,226.428 313.465,226.116 311.000 C 226.004 310.120,225.675 309.130,225.385 308.799 C 225.094 308.469,224.664 307.749,224.429 307.199 C 224.194 306.650,223.847 305.930,223.658 305.600 C 222.530 303.634,222.000 302.383,222.000 301.687 C 222.000 301.253,221.730 300.674,221.400 300.400 C 221.070 300.126,220.800 299.651,220.800 299.343 C 220.800 298.717,219.045 295.798,218.445 295.428 C 216.918 294.484,214.423 300.401,214.407 305.003 C 214.403 306.104,214.204 307.634,213.964 308.403 C 212.535 312.981,211.864 338.317,212.983 345.400 C 213.726 350.095,214.583 351.849,216.300 352.183 C 217.015 352.322,217.600 352.608,217.600 352.818 C 217.600 353.028,217.915 353.518,218.300 353.907 C 218.685 354.295,219.319 355.105,219.709 355.707 C 220.714 357.256,221.108 357.073,221.449 354.900 C 221.851 352.332,223.006 360.378,223.981 372.538 L 224.400 377.757 223.322 378.882 C 222.434 379.808,222.018 379.965,220.968 379.768 C 218.963 379.391,218.681 380.601,220.600 381.341 C 220.847 381.437,220.797 381.839,220.468 382.393 C 220.176 382.887,219.781 384.665,219.591 386.345 C 218.836 393.006,216.376 405.505,215.734 405.939 C 215.203 406.298,214.394 412.007,214.397 415.372 C 214.399 416.896,214.234 418.696,214.031 419.372 C 213.013 422.763,212.015 427.254,211.802 429.400 C 211.671 430.720,211.382 432.790,211.160 434.000 C 210.938 435.210,210.508 437.550,210.205 439.200 C 209.472 443.188,208.847 447.614,208.566 450.800 C 208.440 452.230,208.174 453.760,207.974 454.200 C 206.730 456.943,205.889 466.172,206.170 474.000 C 206.751 490.172,206.850 499.803,206.430 499.200 C 206.200 498.870,206.009 497.940,206.006 497.133 C 206.003 496.327,205.797 495.599,205.549 495.516 C 205.047 495.349,204.131 491.568,203.631 487.600 C 203.451 486.170,203.110 484.280,202.873 483.400 C 202.637 482.520,202.146 480.450,201.783 478.800 C 201.133 475.843,198.102 465.927,197.015 463.200 C 196.708 462.430,196.145 460.720,195.764 459.400 C 195.383 458.080,194.861 456.730,194.603 456.400 C 194.009 455.638,192.800 452.376,192.800 451.536 C 192.800 451.185,192.552 450.692,192.248 450.440 C 191.945 450.188,191.590 449.450,191.460 448.799 C 191.235 447.674,190.776 446.617,187.155 438.876 C 186.300 437.048,185.600 435.218,185.600 434.809 C 185.600 434.400,185.299 433.465,184.931 432.732 C 184.562 432.000,184.022 430.922,183.731 430.338 C 183.439 429.754,183.200 428.922,183.200 428.488 C 183.200 428.054,182.739 426.657,182.175 425.383 C 181.612 424.108,180.991 422.331,180.796 421.433 C 180.600 420.535,180.150 418.540,179.795 417.000 C 178.398 410.933,178.181 411.543,182.800 408.534 C 184.010 407.745,186.408 405.673,188.128 403.930 L 191.256 400.760 190.324 400.080 C 189.045 399.148,187.897 398.433,187.300 398.197 C 185.614 397.532,185.375 397.388,180.126 393.893 C 177.889 392.404,175.129 390.289,173.992 389.193 C 172.855 388.097,171.807 387.199,171.662 387.199 C 171.518 387.198,171.044 386.667,170.610 386.018 C 170.175 385.369,169.413 384.621,168.916 384.355 C 168.420 384.089,167.908 383.541,167.780 383.136 C 167.651 382.731,167.288 382.400,166.973 382.400 C 166.658 382.400,166.396 382.265,166.391 382.100 C 166.386 381.935,165.609 380.954,164.664 379.920 C 163.719 378.886,162.238 377.194,161.373 376.161 C 160.508 375.128,159.109 373.469,158.263 372.475 C 157.418 371.480,155.987 369.662,155.084 368.433 C 154.180 367.205,153.251 366.003,153.020 365.761 C 152.616 365.339,148.873 360.990,143.784 355.030 C 140.517 351.203,136.344 345.803,135.553 344.376 C 135.197 343.734,134.714 342.978,134.479 342.696 C 134.245 342.413,133.504 341.138,132.832 339.861 C 131.633 337.582,129.444 333.981,127.732 331.472 C 124.007 326.011,118.272 314.357,117.255 310.177 C 117.043 309.310,116.685 308.060,116.459 307.400 C 115.993 306.042,115.102 302.642,114.205 298.800 C 113.577 296.109,112.778 288.122,113.063 287.379 C 113.272 286.835,112.049 283.890,111.455 283.506 C 110.754 283.053,110.654 283.114,109.829 284.503 M230.000 302.210 C 230.000 302.618,232.147 303.229,232.758 302.995 C 233.298 302.787,233.302 302.709,232.789 302.385 C 232.165 301.990,230.000 301.854,230.000 302.210 M149.400 317.600 C 149.264 317.820,149.502 318.000,149.930 318.000 C 150.890 318.000,153.222 320.523,154.001 322.403 C 155.319 325.585,157.750 327.341,160.983 327.445 C 166.282 327.616,171.312 328.031,171.939 328.348 C 172.302 328.532,173.606 328.703,174.836 328.727 C 176.066 328.751,177.529 328.945,178.088 329.157 C 178.672 329.379,180.019 329.414,181.252 329.239 C 183.305 328.947,184.476 328.424,187.874 326.280 C 188.713 325.750,189.762 325.202,190.204 325.062 C 190.646 324.922,191.186 324.401,191.404 323.904 C 191.644 323.357,192.156 322.996,192.702 322.989 C 193.719 322.976,195.924 320.991,195.449 320.516 C 195.019 320.086,189.890 319.995,189.390 320.409 C 189.165 320.595,187.663 320.582,186.053 320.380 C 184.442 320.178,180.546 320.108,177.394 320.225 C 172.788 320.396,171.376 320.317,170.196 319.824 C 169.095 319.364,168.527 319.318,167.927 319.639 C 167.466 319.886,166.674 319.939,166.063 319.764 C 163.745 319.099,159.763 318.688,156.517 318.778 C 155.166 318.815,153.803 318.548,152.639 318.018 C 150.651 317.112,149.772 316.999,149.400 317.600 M236.400 349.977 C 236.400 350.405,236.055 350.996,235.634 351.291 C 234.697 351.947,233.987 355.004,234.837 354.721 C 235.137 354.621,235.387 354.103,235.391 353.570 C 235.409 351.583,236.959 352.351,237.067 354.400 C 237.277 358.369,237.618 361.055,238.046 362.100 C 238.500 363.208,237.922 365.600,237.200 365.600 C 236.195 365.600,235.301 362.600,236.203 362.254 C 237.361 361.810,236.781 361.200,235.200 361.200 C 233.867 361.200,233.600 361.067,233.600 360.400 C 233.600 359.956,233.867 359.600,234.200 359.600 C 234.530 359.600,234.800 359.420,234.800 359.200 C 234.800 358.980,234.541 358.800,234.224 358.800 C 233.373 358.800,233.060 358.051,233.626 357.369 C 234.020 356.894,234.012 356.316,233.584 354.532 C 233.075 352.410,233.090 352.257,233.872 351.624 C 234.325 351.256,234.822 350.560,234.975 350.078 C 235.320 348.992,236.400 348.916,236.400 349.977 M370.700 359.918 C 369.215 359.983,368.000 360.194,368.000 360.386 C 368.000 360.809,370.357 361.376,370.698 361.035 C 370.831 360.902,371.260 361.282,371.651 361.878 C 372.314 362.888,372.382 362.909,372.639 362.181 C 372.791 361.752,373.272 361.113,373.707 360.762 C 374.744 359.924,374.181 359.766,370.700 359.918 M351.629 365.546 C 351.205 366.338,351.268 366.400,352.486 366.394 C 353.383 366.390,353.626 366.278,353.253 366.041 C 352.952 365.850,352.566 365.469,352.396 365.193 C 352.170 364.828,351.962 364.924,351.629 365.546 M323.527 369.109 C 324.083 369.294,324.194 374.000,323.643 374.000 C 322.825 374.000,321.815 367.912,322.315 366.000 C 322.528 365.187,322.622 365.370,322.815 366.976 C 322.946 368.062,323.267 369.022,323.527 369.109 M371.757 366.633 C 371.891 366.981,372.000 367.341,372.000 367.433 C 372.000 367.525,372.180 367.600,372.400 367.600 C 372.620 367.600,372.800 367.240,372.800 366.800 C 372.800 366.332,372.533 366.000,372.157 366.000 C 371.735 366.000,371.598 366.218,371.757 366.633 M237.876 368.946 C 237.687 369.440,237.468 369.462,236.646 369.075 L 235.647 368.603 236.523 368.129 C 237.510 367.596,238.228 368.030,237.876 368.946 M357.200 369.200 C 357.435 369.640,357.802 370.000,358.014 370.000 C 358.226 370.000,358.400 369.640,358.400 369.200 C 358.400 368.662,358.133 368.400,357.586 368.400 C 356.896 368.400,356.837 368.522,357.200 369.200 M239.033 370.400 C 239.345 370.400,239.600 370.568,239.600 370.773 C 239.600 371.400,238.056 371.680,236.283 371.374 L 234.600 371.084 236.000 370.573 C 236.770 370.291,237.640 370.137,237.933 370.230 C 238.226 370.324,238.721 370.400,239.033 370.400 M239.200 373.026 C 239.200 373.151,239.023 373.583,238.807 373.986 C 238.349 374.843,239.443 375.517,240.147 374.813 C 240.866 374.094,241.224 374.364,240.958 375.425 C 240.751 376.249,240.867 376.492,241.550 376.671 C 242.018 376.793,242.400 377.173,242.400 377.515 C 242.400 377.857,242.713 378.482,243.095 378.905 C 243.754 379.633,243.754 379.698,243.095 380.180 C 242.282 380.774,242.223 381.328,242.863 382.352 C 243.563 383.472,243.008 384.400,241.639 384.400 C 240.986 384.400,239.990 384.576,239.426 384.790 C 238.862 385.005,238.403 385.050,238.406 384.890 C 238.422 384.152,239.124 383.651,240.501 383.392 C 242.243 383.065,242.508 382.403,240.900 382.394 C 240.295 382.391,239.552 382.231,239.249 382.039 C 238.410 381.508,239.098 380.800,240.453 380.800 C 241.387 380.800,241.628 380.642,241.522 380.100 C 241.409 379.522,241.041 379.425,239.412 379.543 L 237.440 379.686 238.474 378.330 L 239.508 376.974 238.573 375.887 C 238.059 375.289,237.456 374.800,237.233 374.800 C 236.556 374.800,235.924 373.298,236.503 373.064 C 237.202 372.782,239.200 372.754,239.200 373.026 M325.194 375.700 C 325.197 376.085,325.020 376.400,324.800 376.400 C 324.580 376.400,324.403 375.815,324.406 375.100 C 324.411 374.114,324.506 373.945,324.800 374.400 C 325.013 374.730,325.191 375.315,325.194 375.700 M325.806 380.971 C 326.916 382.699,328.049 391.275,327.234 391.779 C 325.955 392.569,325.353 391.127,324.929 386.251 C 324.550 381.903,324.696 376.506,325.120 379.171 C 325.205 379.705,325.514 380.515,325.806 380.971 M238.000 382.824 C 238.000 383.031,237.730 383.200,237.400 383.200 C 236.781 383.200,236.605 382.728,237.056 382.278 C 237.375 381.958,238.000 382.319,238.000 382.824 M356.400 387.976 C 356.400 388.403,356.580 388.864,356.800 389.000 C 357.027 389.140,357.200 388.804,357.200 388.224 C 357.200 387.661,357.020 387.200,356.800 387.200 C 356.580 387.200,356.400 387.549,356.400 387.976 M346.678 389.456 C 346.261 389.873,346.789 390.400,347.624 390.400 C 348.051 390.400,348.400 390.130,348.400 389.800 C 348.400 389.207,347.172 388.961,346.678 389.456 M366.000 390.376 C 366.000 391.023,365.820 391.664,365.600 391.800 C 365.380 391.936,365.200 392.390,365.200 392.810 C 365.200 393.229,364.819 393.776,364.353 394.025 C 363.641 394.406,363.540 394.735,363.719 396.071 C 363.846 397.018,363.703 398.213,363.366 399.019 C 362.434 401.249,363.507 402.322,364.722 400.376 C 365.720 398.777,367.775 399.462,367.920 401.441 C 368.072 403.520,369.901 405.411,372.161 405.826 C 373.671 406.103,373.713 406.081,373.424 405.156 C 373.260 404.630,373.030 403.660,372.914 403.000 C 372.798 402.340,372.440 401.500,372.119 401.133 C 371.136 400.009,371.598 398.579,372.900 398.715 C 374.186 398.850,374.403 397.908,373.351 396.746 C 372.385 395.679,372.933 394.800,374.564 394.800 C 376.066 394.800,376.166 394.717,376.535 393.171 C 376.878 391.728,373.739 389.949,372.893 391.106 C 371.331 393.243,369.730 394.800,369.095 394.800 C 368.697 394.800,367.923 395.094,367.373 395.454 C 366.824 395.814,366.261 395.994,366.121 395.854 C 365.981 395.714,366.077 395.600,366.333 395.600 C 366.590 395.600,366.800 395.088,366.800 394.462 C 366.800 393.832,367.157 393.001,367.600 392.600 C 368.643 391.656,368.610 391.286,367.379 390.146 C 366.081 388.942,366.000 388.956,366.000 390.376 M382.806 391.758 C 382.801 392.449,382.570 392.494,380.174 392.270 C 377.629 392.033,377.552 392.053,377.674 392.913 C 377.768 393.577,378.027 393.768,378.703 393.674 C 379.843 393.516,380.276 394.534,379.707 396.040 C 379.387 396.890,379.413 397.336,379.819 397.881 C 380.507 398.807,381.738 398.155,381.936 396.759 C 382.012 396.232,382.335 395.506,382.656 395.147 C 383.032 394.726,383.145 394.122,382.976 393.447 C 382.749 392.544,382.843 392.396,383.657 392.368 C 384.267 392.348,384.388 392.256,384.000 392.108 C 383.670 391.983,383.268 391.682,383.106 391.440 C 382.929 391.175,382.810 391.301,382.806 391.758 M357.896 391.860 C 357.237 392.971,357.166 394.800,357.781 394.800 C 358.135 394.800,358.529 395.070,358.655 395.400 C 358.782 395.730,359.246 396.000,359.686 396.000 C 360.226 396.000,360.412 395.809,360.260 395.411 C 360.135 395.087,360.227 394.268,360.463 393.591 C 360.699 392.913,360.814 392.280,360.717 392.184 C 360.332 391.799,358.084 391.541,357.896 391.860 M351.649 392.709 C 351.386 393.199,350.829 393.600,350.410 393.600 C 349.523 393.600,348.954 394.318,349.455 394.804 C 350.537 395.853,352.920 394.079,352.403 392.609 C 352.134 391.843,352.111 391.846,351.649 392.709 M385.837 393.300 C 385.632 394.312,385.746 394.741,386.351 395.235 C 386.847 395.640,387.009 396.061,386.800 396.400 C 386.606 396.714,386.690 397.147,387.008 397.465 C 387.678 398.135,388.273 398.149,388.535 397.500 C 388.658 397.196,388.749 397.269,388.768 397.686 C 388.807 398.533,390.234 399.392,390.605 398.791 C 390.745 398.565,390.724 397.800,390.558 397.090 C 390.392 396.381,390.302 395.395,390.357 394.900 C 390.438 394.172,390.259 394.000,389.419 394.000 C 388.679 394.000,388.271 393.712,388.000 393.000 C 387.434 391.511,386.163 391.688,385.837 393.300 M327.600 394.624 C 327.600 395.471,327.438 395.947,327.200 395.800 C 326.980 395.664,326.800 395.023,326.800 394.376 C 326.800 393.729,326.980 393.200,327.200 393.200 C 327.420 393.200,327.600 393.841,327.600 394.624 M342.413 398.450 C 342.440 400.487,344.804 401.641,346.000 400.200 C 346.274 399.870,346.746 399.600,347.049 399.600 C 347.352 399.600,347.600 399.409,347.600 399.175 C 347.600 398.941,347.268 398.806,346.861 398.875 C 346.455 398.944,345.853 398.776,345.523 398.502 C 344.236 397.434,342.399 397.403,342.413 398.450 M354.217 399.172 C 354.091 399.377,354.170 399.658,354.393 399.796 C 354.963 400.148,354.889 400.461,353.978 401.555 C 353.131 402.572,351.600 401.918,351.600 400.538 C 351.600 399.744,350.255 399.884,349.091 400.800 C 347.946 401.700,348.013 403.200,349.198 403.200 C 349.585 403.200,350.126 403.470,350.400 403.800 C 350.998 404.520,353.600 404.615,353.600 403.917 C 353.600 403.651,354.212 402.796,354.960 402.017 C 356.069 400.861,356.255 400.434,355.973 399.700 C 355.621 398.787,354.638 398.492,354.217 399.172 M374.043 399.520 C 373.437 400.653,373.478 400.800,374.400 400.800 C 375.245 400.800,375.422 400.170,374.837 399.246 C 374.555 398.802,374.398 398.856,374.043 399.520 M377.300 400.012 C 375.221 400.848,376.922 404.000,379.453 404.000 C 380.345 404.000,380.951 404.280,381.377 404.889 C 381.720 405.378,382.000 405.549,382.000 405.269 C 382.000 404.988,382.618 404.501,383.373 404.186 C 385.836 403.156,385.561 402.193,382.648 401.648 C 381.447 401.424,380.520 400.979,380.147 400.446 C 379.516 399.545,378.753 399.429,377.300 400.012 M339.533 401.172 C 339.857 403.382,339.125 404.332,338.552 402.446 C 338.259 401.481,338.122 400.527,338.246 400.325 C 338.628 399.707,339.392 400.210,339.533 401.172 M387.776 401.638 C 387.354 402.322,388.687 403.473,389.250 402.910 C 389.501 402.659,389.598 402.172,389.466 401.827 C 389.189 401.105,388.176 400.992,387.776 401.638 M391.789 402.818 C 391.414 403.424,392.430 404.530,392.916 404.044 C 393.365 403.595,393.016 402.400,392.436 402.400 C 392.222 402.400,391.931 402.588,391.789 402.818 M392.480 406.480 C 391.733 407.227,391.908 407.830,393.019 408.336 C 394.246 408.895,395.600 408.942,395.600 408.426 C 395.600 406.452,393.696 405.264,392.480 406.480 M372.871 407.421 C 373.052 408.290,373.761 408.343,373.924 407.500 C 374.008 407.062,373.812 406.800,373.400 406.800 C 373.016 406.800,372.795 407.059,372.871 407.421 M378.000 410.330 C 378.000 411.228,379.608 412.800,380.526 412.800 C 381.394 412.800,381.375 412.578,380.367 410.947 C 379.460 409.479,378.000 409.098,378.000 410.330 M388.400 411.000 C 388.400 411.770,388.580 412.400,388.800 412.400 C 389.020 412.400,389.200 411.770,389.200 411.000 C 389.200 410.230,389.020 409.600,388.800 409.600 C 388.580 409.600,388.400 410.230,388.400 411.000 M386.000 413.400 C 386.000 413.730,386.180 414.000,386.400 414.000 C 386.620 414.000,386.800 413.730,386.800 413.400 C 386.800 413.070,386.620 412.800,386.400 412.800 C 386.180 412.800,386.000 413.070,386.000 413.400 M392.466 415.550 C 392.041 415.820,392.068 415.940,392.599 416.144 C 393.634 416.541,394.000 416.452,394.000 415.800 C 394.000 415.140,393.296 415.025,392.466 415.550 M378.800 416.413 C 378.800 417.715,379.947 417.835,381.126 416.656 L 382.182 415.600 380.491 415.600 C 379.058 415.600,378.800 415.724,378.800 416.413 M341.575 419.900 C 341.553 421.202,341.502 421.281,341.187 420.500 C 340.866 419.699,341.024 418.400,341.443 418.400 C 341.529 418.400,341.589 419.075,341.575 419.900 M387.468 420.266 C 386.960 420.774,387.204 421.182,388.380 421.790 C 389.867 422.558,390.400 422.561,390.400 421.800 C 390.400 421.470,390.099 421.200,389.731 421.200 C 389.364 421.200,388.764 420.930,388.399 420.599 C 388.034 420.269,387.615 420.119,387.468 420.266 M364.800 433.574 C 364.800 434.074,367.090 434.915,367.597 434.602 C 368.432 434.086,367.748 433.434,366.272 433.340 C 365.463 433.288,364.800 433.393,364.800 433.574 M345.076 443.900 C 344.975 444.285,344.893 443.970,344.893 443.200 C 344.893 442.430,344.975 442.115,345.076 442.500 C 345.176 442.885,345.176 443.515,345.076 443.900 M396.800 447.994 C 396.800 448.994,396.958 449.550,397.200 449.400 C 397.420 449.264,397.600 448.893,397.600 448.576 C 397.600 448.259,397.764 448.000,397.965 448.000 C 398.608 448.000,398.149 446.605,397.462 446.471 C 396.932 446.367,396.800 446.671,396.800 447.994 M349.027 449.284 C 348.540 449.612,347.876 448.124,348.245 447.528 C 348.380 447.309,348.707 447.550,348.970 448.065 C 349.302 448.712,349.319 449.087,349.027 449.284 M368.937 453.890 C 369.291 456.068,368.612 456.336,368.125 454.210 C 367.807 452.820,367.825 452.400,368.203 452.400 C 368.474 452.400,368.804 453.071,368.937 453.890 M215.700 456.252 C 217.140 456.996,218.000 457.771,218.000 458.322 C 218.000 458.531,218.270 458.926,218.600 459.200 C 219.943 460.315,219.412 466.545,217.761 469.032 L 216.322 471.200 213.361 471.200 C 208.886 471.200,208.036 470.014,209.775 466.200 C 210.076 465.540,210.615 463.650,210.973 462.000 C 212.351 455.652,213.004 454.858,215.700 456.252 M388.184 458.027 C 387.660 458.874,389.314 459.597,391.200 459.346 C 393.303 459.066,394.073 458.543,393.197 457.989 C 392.378 457.472,388.509 457.501,388.184 458.027 M348.167 459.100 C 348.490 459.705,349.305 460.775,349.977 461.478 C 351.198 462.754,351.535 463.600,350.824 463.600 C 350.617 463.600,350.331 463.411,350.188 463.181 C 350.011 462.895,349.746 462.913,349.355 463.238 C 348.683 463.795,348.811 463.909,347.428 461.512 C 346.723 460.291,346.429 459.337,346.596 458.812 C 346.949 457.699,347.469 457.794,348.167 459.100 M352.400 460.600 C 352.400 461.150,352.220 461.600,352.000 461.600 C 351.780 461.600,351.600 461.150,351.600 460.600 C 351.600 460.050,351.780 459.600,352.000 459.600 C 352.220 459.600,352.400 460.050,352.400 460.600 M374.115 487.076 C 373.971 487.453,374.065 487.822,374.328 487.909 C 374.588 487.996,374.800 488.294,374.800 488.571 C 374.800 488.849,375.129 489.374,375.531 489.737 C 376.611 490.715,376.235 492.800,374.978 492.800 C 374.466 492.800,373.936 492.620,373.800 492.400 C 373.664 492.180,373.269 492.000,372.922 492.000 C 372.575 492.000,371.875 491.550,371.365 491.000 C 370.710 490.293,370.020 490.000,369.011 490.000 L 367.584 490.000 368.407 491.614 C 369.319 493.402,369.187 493.997,367.876 494.006 C 366.539 494.015,365.858 494.613,366.105 495.559 C 366.280 496.226,366.142 496.400,365.443 496.400 C 364.957 496.400,364.352 496.608,364.097 496.863 C 363.385 497.575,364.985 499.600,366.262 499.600 C 367.332 499.600,370.000 501.804,370.000 502.688 C 370.000 503.384,368.333 503.336,367.376 502.613 C 366.630 502.048,365.200 501.780,365.200 502.205 C 365.200 502.318,365.358 502.723,365.551 503.105 C 366.484 504.950,367.200 506.902,367.200 507.600 C 367.200 508.025,367.503 509.009,367.874 509.786 C 368.977 512.099,373.600 511.653,373.600 509.233 C 373.600 508.572,374.754 507.200,375.311 507.200 C 375.447 507.200,376.044 506.750,376.638 506.200 C 377.231 505.650,377.936 505.200,378.204 505.200 C 378.473 505.200,379.181 504.816,379.778 504.346 C 380.909 503.456,385.523 503.470,387.128 504.367 C 387.497 504.574,388.168 504.564,388.748 504.344 C 389.292 504.137,390.022 504.094,390.369 504.249 C 391.244 504.640,392.451 504.796,396.500 505.044 L 400.000 505.259 400.000 500.029 C 400.000 494.911,399.981 494.800,399.122 494.800 C 398.289 494.800,395.337 493.063,394.706 492.201 C 394.524 491.952,394.410 491.989,394.406 492.300 C 394.403 492.575,394.152 492.800,393.849 492.800 C 393.546 492.800,393.079 493.063,392.812 493.385 C 392.388 493.897,392.203 493.890,391.343 493.326 C 390.171 492.558,389.465 493.033,389.666 494.454 C 389.828 495.595,391.467 496.013,391.852 495.010 C 392.066 494.450,392.177 494.475,392.685 495.201 C 393.486 496.344,393.062 497.325,391.902 497.010 C 389.651 496.398,387.198 494.942,386.829 494.000 C 385.858 491.523,385.317 491.321,382.104 492.236 C 381.393 492.438,380.854 492.121,379.504 490.704 C 378.567 489.721,377.395 488.704,376.900 488.444 C 376.405 488.184,376.000 487.727,376.000 487.429 C 376.000 487.130,375.715 486.776,375.367 486.643 C 374.471 486.299,374.405 486.322,374.115 487.076 M377.367 493.443 C 378.145 493.741,378.208 494.800,377.449 494.800 C 376.771 494.800,375.910 493.824,376.270 493.463 C 376.591 493.142,376.585 493.142,377.367 493.443 M370.394 495.300 C 370.397 495.465,370.130 495.600,369.800 495.600 C 369.187 495.600,368.980 494.753,369.473 494.261 C 369.741 493.992,370.382 494.715,370.394 495.300 M208.199 501.596 C 208.489 502.511,208.122 503.323,207.572 502.983 C 207.087 502.683,207.088 500.800,207.573 500.800 C 207.778 500.800,208.060 501.158,208.199 501.596 M210.630 509.777 C 210.903 510.865,210.546 511.737,209.972 511.383 C 209.475 511.076,209.493 508.800,209.992 508.800 C 210.208 508.800,210.495 509.240,210.630 509.777 M371.850 518.215 C 371.592 518.887,372.502 519.431,373.181 519.012 C 373.411 518.869,373.600 518.493,373.600 518.176 C 373.600 517.405,372.148 517.437,371.850 518.215 M380.138 525.017 C 380.008 525.357,379.994 525.727,380.107 525.840 C 380.453 526.187,382.935 525.394,383.106 524.882 C 383.358 524.126,380.429 524.260,380.138 525.017 " stroke="none" fill="#161a1f" fill-rule="evenodd"></path></g></svg>